<?xml version="1.0" encoding="UTF-8" standalone="no"?>
<!-- Created with Inkscape (http://www.inkscape.org/) -->

<svg
   version="1.1"
   id="svg1"
   width="789.88251"
   height="447.02972"
   viewBox="0 0 789.88251 447.02972"
   sodipodi:docname="logo.svg"
   inkscape:version="1.4.2 (f4327f4, 2025-05-13)"
   xmlns:inkscape="http://www.inkscape.org/namespaces/inkscape"
   xmlns:sodipodi="http://sodipodi.sourceforge.net/DTD/sodipodi-0.dtd"
   xmlns="http://www.w3.org/2000/svg"
   xmlns:svg="http://www.w3.org/2000/svg">
  <defs
     id="defs1" />
  <sodipodi:namedview
     id="namedview1"
     pagecolor="#ffffff"
     bordercolor="#666666"
     borderopacity="1.0"
     inkscape:showpageshadow="2"
     inkscape:pageopacity="0.0"
     inkscape:pagecheckerboard="0"
     inkscape:deskcolor="#d1d1d1"
     showgrid="false"
     inkscape:zoom="0.90866526"
     inkscape:cx="355.46643"
     inkscape:cy="372.52442"
     inkscape:window-width="1920"
     inkscape:window-height="1027"
     inkscape:window-x="-8"
     inkscape:window-y="-8"
     inkscape:window-maximized="1"
     inkscape:current-layer="g1" />
  <g
     inkscape:groupmode="layer"
     inkscape:label="Image"
     id="g1"
     transform="translate(-8.3050837,-103.46704)">
    <g
       id="g2"
       transform="matrix(1.2354034,0,0,1.2354034,-99.523394,-82.003535)">
      <path
         style="fill:#3db2f8"
         d="m 512.35791,349.25 c 17.58035,-31.11025 21.42317,-67.83661 10.53187,-100.65441 -19.05397,-57.41366 -78.00304,-92.23616 -137.87651,-81.44664 -35.83644,6.45791 -67.83761,30.09502 -86.05043,63.55965 -1.85843,3.41473 -3.54367,6.04391 -3.74496,5.84261 -0.2013,-0.20129 1.47208,-4.76501 3.71861,-10.14158 13.04833,-31.22832 37.98842,-55.48576 70.30499,-68.38062 12.61172,-5.0323 24.29983,-7.16735 42.25852,-7.71933 13.75511,-0.42277 17.46713,-0.18982 26.45667,1.66033 53.57778,11.02689 92.31237,52.02374 100.1067,105.95335 1.79195,12.39867 0.66286,34.09444 -2.39907,46.0988 -4.52625,17.74522 -12.90848,34.92057 -24.02506,49.22784 -2.78911,3.58964 -2.42499,1.56304 0.71867,-4 z M 320.23726,295.7774 320.5,260.649 l 10,-3.21702 c 5.5,-1.76936 13.7125,-4.35393 18.25,-5.7435 L 357,249.16201 V 281.081 c 0,29.71534 0.12082,31.92209 1.75,31.96374 0.9625,0.0246 -1.4,1.07442 -5.25,2.33291 -8.79273,2.87418 -19.10061,7.45136 -26.85328,12.32352 l -6.74098,4.23636 z m 44.0013,-23.84735 0.26144,-40.29271 11,-3.59363 C 387.36287,224.16819 398.36612,221 399.96308,221 c 0.63705,0 1.09076,14.64755 1.2651,40.84245 L 401.5,302.68489 c -1.56269,0.34498 -30.29234,6.7019 -35.76144,8.847 -1.6668,0.65375 -1.74739,-1.47407 -1.5,-39.60184 z m 43.50122,28.36158 c 0.94871,-0.68643 1.30087,-11.68442 1.5,-46.84433 L 409.5,207.5 l 17,-5.667 c 9.35,-3.11684 17.5625,-5.70434 18.25,-5.75 0.98208,-0.0652 1.25,9.22273 1.25,43.33367 0,30.80841 0.32092,43.52364 1.1051,43.78503 3.3948,1.1316 -44.97426,21.14826 -39.36532,17.08993 z"
         id="path3"
         sodipodi:nodetypes="sssssssssssssccsscssssccscssscsssscsssss" />
      <path
         style="fill:#354ab3"
         d="m 92.5,510.47116 c -2.2,-0.79257 -4.1125,-1.44782 -4.25,-1.4561 -0.1375,-0.008 -0.25,-2.7632 -0.25,-6.12205 0,-5.4322 0.193366,-6.025 1.75,-5.36494 9.147942,3.87898 13.65354,4.34885 18.36057,1.91475 2.39123,-1.23655 2.94723,-2.11162 2.70034,-4.25 -0.27145,-2.35104 -1.31101,-3.08629 -8.19057,-5.79293 -10.05311,-3.95522 -14.130493,-7.51113 -15.080613,-13.15189 -0.557036,-3.30707 -0.256844,-5.20091 1.350795,-8.52185 3.665053,-7.57099 12.917248,-10.78264 25.129018,-8.72285 L 121,460.1807 v 6.36529 6.36529 l -3.75,-1.30973 c -6.94802,-2.42668 -10.95716,-2.75075 -14.69732,-1.18801 -6.234513,2.60495 -4.111532,5.72839 6.14087,9.03478 7.04291,2.27133 11.25387,5.31798 13.57953,9.82486 4.12165,7.98731 -0.57608,17.93839 -9.98126,21.14306 -5.72329,1.95011 -14.463907,1.97437 -19.79182,0.0549 z m 185.79923,0.48142 c -4.09258,-1.25849 -4.54439,-2.07536 -4.77326,-8.63014 -0.15986,-4.57845 0.0535,-5.30772 1.39262,-4.75896 6.57382,2.69399 10.7234,3.61375 14.19995,3.14745 4.8494,-0.65045 6.88146,-2.21778 6.88146,-5.30769 0,-2.58473 -2.14477,-3.98888 -11.35823,-7.43608 -3.41009,-1.27588 -6.73282,-3.44577 -8.69016,-5.67506 -2.93762,-3.34575 -3.13826,-4.03492 -2.74751,-9.43702 0.31882,-4.40759 1.01543,-6.47163 2.85872,-8.47026 4.78314,-5.18624 14.43072,-7.21236 24.43718,-5.13215 l 6,1.24733 0.301,6.37656 c 0.27427,5.8102 0.14104,6.31023 -1.5,5.6298 -9.46836,-3.92594 -16.59536,-4.04855 -19.94867,-0.34319 -1.76361,1.94877 -1.76394,2.06269 -0.01,3.34538 0.99882,0.73036 4.76496,2.36898 8.36921,3.64139 3.61256,1.27534 8.34482,3.90341 10.54585,5.85666 3.43689,3.04997 4.0602,4.24598 4.4778,8.59195 0.66709,6.94253 -2.23734,12.59011 -7.99891,15.55366 -4.80534,2.4717 -17.05719,3.45479 -22.43731,1.80037 z M 401.49875,485.25 401.5,459 H 418.75 436 v 5 5 h -11 -11 v 5 5 h 9.55479 9.55479 l -0.30479,4.75 -0.30479,4.75 h -9.25145 -9.25145 l 0.001,6.25 L 414,501 h 11 11 v 4.95541 4.95541 L 418.74875,511.20541 401.4975,511.5 Z m 130.90232,24.84457 c -4.71755,-2.14246 -7.23727,-5.32972 -11.26135,-14.24483 -2.78717,-6.17478 -6.5126,-10.81367 -7.36022,-9.16488 -0.23047,0.44833 -0.16265,6.10338 0.15073,12.56679 l 0.56977,11.75164 -6.55801,-0.002 -6.558,-0.002 -0.0451,-26 -0.0452,-26 6.60316,-10e-4 6.60316,-10e-4 -0.34315,10.57497 -0.34315,10.57498 2.84551,-1.47147 c 5.52806,-2.85867 9.20131,-9.34876 9.2969,-16.42623 L 526,459 h 7.13084 7.13084 l -0.59071,3.64017 c -0.82768,5.10035 -4.83017,10.71975 -11.07918,15.55487 l -5.33583,4.12856 3.62202,3.61618 c 1.99211,1.9889 5.12108,5.29109 6.95326,7.3382 1.83219,2.04711 4.19469,3.72202 5.25,3.72202 1.72112,0 1.91876,0.77252 1.91876,7.5 0,7.11762 -0.11471,7.49888 -2.25,7.47804 -1.2375,-0.0121 -4.09452,-0.85964 -6.34893,-1.88347 z m 87.09893,1.15801 -17,-0.29786 v -25.97744 -25.97744 l 17.25,8e-5 L 637,459 v 4.96617 4.96617 l -10.75,0.28383 -10.75,0.28383 -0.30479,4.75 -0.30479,4.75 h 9.60958 9.60958 l -0.30479,4.75 -0.30479,4.75 -9.25,0.28753 -9.25,0.28752 V 495.03753 501 h 11 11 v 5.5 c 0,3.025 -0.1125,5.39885 -0.25,5.27522 -0.1375,-0.12363 -7.9,-0.35882 -17.25,-0.52264 z m 31.79923,-0.30995 c -1.76042,-0.53586 -3.5121,-1.47805 -3.89262,-2.09373 C 646.73959,507.76963 646.03648,497 646.63304,497 c 0.16111,0 2.67208,0.94208 5.57994,2.0935 8.51448,3.37148 16.78702,1.59696 16.78702,-3.60093 0,-2.72273 -2.6573,-4.58055 -10,-6.99139 -3.44978,-1.13267 -6.94262,-3.24099 -9.37002,-5.65587 -3.80146,-3.78185 -3.86215,-3.95887 -3.42571,-9.99261 0.3978,-5.49945 0.81669,-6.4838 4.00102,-9.40202 5.06119,-4.63824 12.66161,-6.11164 22.1878,-4.30128 L 679.5,460.5 l 0.30032,6.35011 c 0.23199,4.90551 0.004,6.22716 -1,5.80968 -9.74881,-4.0517 -17.01716,-4.28764 -20.30104,-0.65899 -2.30174,2.54339 -0.99078,4.20818 4.73641,6.01477 6.62158,2.08871 13.02054,5.52518 15.76431,8.46601 2.12255,2.27499 2.5,3.63769 2.5,9.02565 0,7.44013 -1.8806,10.68855 -8.05669,13.91655 -4.45922,2.33066 -16.71545,3.17131 -22.14408,1.51885 z M 695.5,510.5373 c -2.2,-0.82896 -4.1125,-1.51396 -4.25,-1.52224 -0.1375,-0.008 -0.25,-2.7632 -0.25,-6.12205 0,-5.43206 0.19341,-6.02502 1.75,-5.3653 6.47122,2.74263 10.24484,3.60177 13.99945,3.18724 5.11231,-0.56441 7.25055,-2.14323 7.25055,-5.35357 0,-1.80967 -0.915,-2.79143 -3.75,-4.02364 -17.02603,-7.40019 -19.50246,-9.51685 -19.64996,-16.79525 -0.24023,-11.85392 10.57049,-18.21248 26.4195,-15.53919 L 724,460.1807 v 6.31564 6.31563 l -5.94061,-2.02842 c -3.93107,-1.34226 -7.08588,-1.81356 -9.32627,-1.39326 -4.60483,0.86387 -7.21718,2.90588 -6.40966,5.01026 0.63428,1.65291 2.2305,2.45798 11.96603,6.03519 6.6454,2.44177 10.46706,5.94643 11.77304,10.79649 2.02506,7.5205 -1.2448,14.74219 -8.3352,18.40877 -4.36394,2.25668 -17.23904,2.77586 -22.22733,0.8963 z M 130,510.51368 c 0,-0.31567 1.1291,-3.25657 2.50911,-6.53534 3.37193,-8.01134 11.89653,-33.20047 13.44501,-39.72834 l 1.24536,-5.25 h 7.85792 7.85791 l 2.10174,7.25 c 3.73554,12.88579 8.1983,26.03381 12.04957,35.5 l 3.76331,9.25 h -7.29625 -7.29625 l -1.13311,-4.5 -1.13312,-4.5 h -8.84352 -8.84352 l -0.89344,4.25 -0.89345,4.25 -7.24863,0.29381 C 133.26189,510.9554 130,510.82935 130,510.51368 Z M 161.01265,491.25 c 0.039,-2.31482 -5.46825,-18.18674 -6.08346,-17.53243 C 154.29395,474.3932 149,490.31653 149,491.55162 c 0,0.24661 2.7,0.44838 6,0.44838 3.3,0 6.00569,-0.3375 6.01265,-0.75 z M 188.5,485.00033 v -25.99994 l 6.61245,-2e-4 6.61246,-1.9e-4 -0.50331,20.96346 -0.5033,20.96346 10.39085,0.28654 L 221.5,501.5 l 0.30479,4.75 0.30479,4.75 -16.80479,1.4e-4 -16.80479,1.4e-4 z M 229.5,485 V 459 H 246.75 264 v 4.96617 4.96617 l -10.75,0.28383 -10.75,0.28383 -0.30479,4.75 -0.30479,4.75 h 9.60958 9.60958 l -0.30479,4.75 -0.30479,4.75 -9.25,0.28753 -9.25,0.28752 V 495.03753 501 h 11 11 v 5 5 H 246.75 229.5 Z m 99.4617,16.75 c -2.26847,-9.27597 -9.24732,-30.86939 -12.32081,-38.12212 C 315.7384,461.49821 315,459.58571 315,459.37788 315,459.17004 318.27395,459 322.27544,459 h 7.27544 l 2.81666,12.25 c 3.75777,16.34305 5.82163,23.75 6.61767,23.75 0.73489,0 5.28723,-18.8442 7.06615,-29.25 l 1.15395,-6.75 h 7.1719 7.17191 l 1.16224,7.25 c 2.06228,12.8644 6.47716,30.16529 7.31332,28.65925 0.65241,-1.17507 6.98619,-26.11648 8.54764,-33.65925 0.42935,-2.07398 1.01191,-2.25 7.44673,-2.25 3.83952,0 6.98095,0.36387 6.98095,0.8086 0,0.44472 -1.38965,4.60722 -3.08812,9.25 -4.3219,11.81398 -7.84531,23.00111 -10.37496,32.9414 l -2.16311,8.5 h -7.32258 -7.32257 l -4.02801,-14.33321 c -2.24323,-7.98228 -4.33221,-13.74248 -4.71454,-13 -0.37759,0.73327 -2.40278,7.29571 -4.50043,14.58321 l -3.8139,13.25 h -7.22398 -7.22398 z m 118.19894,-3.36455 c 2.71025,-6.93801 6.65153,-18.52551 8.75841,-25.75 l 3.83069,-13.13545 7.92248,-0.28717 7.92248,-0.28717 2.8341,10.28717 c 2.25879,8.19888 9.51587,28.8444 14.0897,40.0835 0.67013,1.64667 0.11673,1.77164 -6.64237,1.5 l -7.3734,-0.29633 -0.89345,-4.25 -0.89344,-4.25 h -8.84352 -8.84352 l -1.13312,4.5 -1.13311,4.5 h -7.26483 -7.26483 z m 26.52668,-7.75789 c -0.28966,-0.75484 -1.50477,-4.69234 -2.70024,-8.75 -1.19547,-4.05766 -2.53972,-7.76316 -2.98722,-8.23444 C 467.28042,472.88543 462,488.0683 462,490.89461 c 0,0.68652 2.31418,1.10539 6.10699,1.10539 4.76532,0 5.99128,-0.30152 5.58033,-1.37244 z M 550.5,485 v -26 l 7,0.0121 7,0.0121 6.5,15.45545 c 3.575,8.5005 6.89202,15.47005 7.37115,15.4879 0.48886,0.0182 0.55236,-6.76946 0.14471,-15.46755 L 577.78943,459 h 6.85529 6.85528 v 26 26 h -7.08229 -7.08229 l -6.33825,-14.75 c -3.48604,-8.1125 -6.74735,-15.2 -7.24736,-15.75 -0.54799,-0.60278 -0.77817,5.25663 -0.57946,14.75087 L 563.5,511.00175 557,511.00087 550.5,511 Z m -163,-60.97548 c -22.26821,-3.14988 -43.67467,-11.64008 -62.5,-24.78868 -9.51113,-6.64307 -26.57775,-24.35777 -33.40392,-34.67239 -27.34546,-41.32012 -30.72712,-92.31361 -9.00579,-135.80214 4.42555,-8.86044 12.94984,-21.85623 17.88144,-27.26131 l 3.6496,-4 -4.18444,6.37739 c -20.85933,31.79117 -26.4793,73.76442 -14.90388,111.31089 3.12134,10.12448 12.20023,29.23856 16.24405,34.19912 l 2.35379,2.8874 2.72548,-5.57068 c 5.99309,-12.24944 23.69891,-23.59368 50.40588,-32.29541 12.3214,-4.01459 18.77403,-5.73538 41.23779,-10.99734 15.80234,-3.70157 43.97751,-15.4117 54.31394,-22.57389 15.45058,-10.70581 24.27759,-24.38986 23.49365,-36.42099 L 475.5,239.69585 466.66999,251.34792 C 461.81349,257.75657 457.44594,263 456.96433,263 c -0.48324,0 -0.90393,-15.90886 -0.93874,-35.5 -0.0414,-23.27828 0.28466,-35.5 0.947,-35.5 0.55556,0 2.95047,1.4625 5.32202,3.25 2.37156,1.7875 14.94575,10.9 27.94266,20.25 12.9969,9.35 23.66043,17.5625 23.69673,18.25 0.0499,0.94556 -3.46547,1.25 -14.434,1.25 -7.975,0 -14.5,0.26597 -14.5,0.59104 0,0.32507 1.60415,2.46257 3.56478,4.75 C 496.0656,249.0921 501,263.28344 501,276.10476 c 0,23.62205 -16.76903,43.9836 -49.68909,60.33424 -9.46913,4.70311 -22.78586,9.8411 -60.31091,23.26976 -14.49961,5.18881 -28.76245,11.33549 -36.33139,15.6573 C 347.79101,379.29312 341,385.30904 341,387.47461 c 0,1.90781 18.81867,11.04332 30.58283,14.84642 11.46389,3.70603 29.15276,6.67897 39.73956,6.67897 11.77525,0 28.93312,-2.74839 40.72113,-6.52282 33.12183,-10.60534 61.99392,-34.45803 77.44014,-63.97718 4.0774,-7.79229 3.80327,-5.61011 -0.61412,4.88865 -16.31375,38.77267 -53.18584,68.93974 -96.20991,78.71457 -10.26526,2.33221 -34.85794,3.37849 -45.15963,1.9213 z"
         id="path2"
         sodipodi:nodetypes="scsssssssscccssssssscssssssssscsssssssscccccccccccccccccccccccccccsssscccccccccsscccsscssssssscccccccccccccccccccccssssssssssssscscssssssscssssssscccsssssssssscccsscccccccccsssssssccccccccccccccccccccccccccccccccccccccsssscssscccssssssscccssscccssscccssscccccccccsssssssccccssscccccccsssccccssssscssscssssscssssssssssssssssssssss" />
    </g>
  </g>
</svg>
